# xmcd
#
# Track frame offsets:
#	222
#	17385
#	52487
#	72602
#	89500
#
# Disc length: 1484 seconds
# Revision: 0
# Processed by: cddbd v1.5.2PL0 Copyright (c) Steve Scherf et al.
# Submitted via: dBpowerAMP V12.0
#
DISCID=4505ca05
DTITLE=Bad Boys Inc. - Take Me Away (I'll Follow You)
DYEAR=1994
DGENRE=New Jack Swing
TTITLE0=Take Me Away (I'll Follow You) [West End Radio Remix]
TTITLE1=Take Me Away (I'll Follow You) [West End Club Mix]
TTITLE2=Take Me Away (I'll Follow You) [Album Version]
TTITLE3=Take Me Away (I'll Follow You) [West End Instrumental]
TTITLE4=Take Me Away (I'll Follow You) [Sea Breeze Mix]
EXTD=
EXTT0=
EXTT1=
EXTT2=
EXTT3=
EXTT4=
PLAYORDER=
